<?xml version="1.0" encoding="utf-8"?>
<!-- Generator: Adobe Illustrator 25.3.1, SVG Export Plug-In . SVG Version: 6.00 Build 0)  -->
<svg version="1.1" id="Слой_1" xmlns="http://www.w3.org/2000/svg" xmlns:xlink="http://www.w3.org/1999/xlink" x="0px" y="0px"
	 viewBox="0 0 70 70" style="enable-background:new 0 0 70 70;" xml:space="preserve">
<g>
	<path d="M69.6,33.2c-0.5-8.4-3.6-15.8-9.4-21.9c-4.9-5.2-10.9-8.6-18-10.2c-3.9-0.8-7.9-1-11.8-0.5c-14,1.9-25.4,12-29,25.7
		c-0.6,2.2-0.9,4.4-1,6.7l-0.1,3.5l0.1,0.8c0,0.5,0.1,0.9,0.1,1.4c0.6,5.5,2.4,10.6,5.4,15.2c5,7.6,12.1,12.6,20.9,14.8
		c1.9,0.5,4,0.8,6.1,0.9c0,0,0.1,0,0.1,0l3.4,0l0.7-0.1c0.5,0,1-0.1,1.4-0.1c4.9-0.5,9.5-2,13.7-4.5c7.4-4.4,12.6-10.7,15.4-18.7
		C69.2,42.1,69.8,37.7,69.6,33.2z M61.1,35c0,7-2.7,13.5-7.7,18.5c-4.9,4.9-11.5,7.6-18.5,7.6c0,0,0,0,0,0c-6.9,0-13.5-2.7-18.4-7.7
		C11.6,48.5,8.9,42,8.9,35C8.9,20.6,20.6,8.9,35,8.9c0,0,0,0,0,0C49.4,9,61.1,20.7,61.1,35z"/>
	<path d="M51.3,36.8c-0.3-1.9-2-3.3-4-3.3c-2.9,0-5.7,0-8.6,0l-2.2,0V18c0-0.1,0-0.3,0-0.4c-0.1-1.1-0.6-2.2-1.4-2.9
		c-0.8-0.7-1.9-1-3-0.9c-2.1,0.2-3.6,2-3.6,4.1c0,4.6,0,9.1,0,13.7l0,5.7c0,2.5,1.7,4.2,4.2,4.2h14.4c0,0,0,0,0,0c0.1,0,0.2,0,0.3,0
		c1.1,0,2.2-0.6,2.9-1.5C51.1,39.1,51.4,38,51.3,36.8z"/>
</g>
</svg>
