<?xml version="1.0" encoding="UTF-8"?>
<svg height="11px" xmlns="http://www.w3.org/2000/svg" viewBox="0 0 11 11">
    <path d="m10.99,5.22c-.08-1.33-.57-2.51-1.49-3.48-.78-.83-1.73-1.37-2.86-1.62C6.03,0,5.39-.04,4.78.04,2.55.34.75,1.95.17,4.12c-.1.35-.14.7-.16,1.06l-.02.56.02.13c0,.08.02.14.02.22.1.87.38,1.68.86,2.41.79,1.21,1.92,2,3.32,2.35.3.08.63.13.97.14h.56l.11-.02c.08,0,.16-.02.22-.02.78-.08,1.51-.32,2.17-.71,1.17-.7,2-1.7,2.44-2.97.25-.65.35-1.35.32-2.06Zm-1.35.29c0,1.11-.43,2.14-1.22,2.94s-1.82,1.21-2.93,1.21h0c-1.09,0-2.14-.43-2.92-1.22-.78-.78-1.21-1.81-1.21-2.92C1.36,3.22,3.22,1.36,5.5,1.36h0c2.28.02,4.14,1.87,4.14,4.14Z"/><path d="m8.09,5.79c-.05-.3-.32-.52-.63-.52h-1.71v-2.52c-.02-.17-.1-.35-.22-.46-.13-.11-.3-.16-.48-.14-.33.03-.57.32-.57.65v3.08c0,.4.27.67.67.67h2.33c.17,0,.35-.1.46-.24.13-.14.17-.32.16-.51Z"/>
</svg>