<?xml version="1.0" encoding="utf-8"?>
<!-- Generator: Adobe Illustrator 26.0.1, SVG Export Plug-In . SVG Version: 6.00 Build 0)  -->
<svg version="1.1" id="Слой_1" xmlns="http://www.w3.org/2000/svg" xmlns:xlink="http://www.w3.org/1999/xlink" x="0px" y="0px"
	 viewBox="0 0 429.3 410" style="enable-background:new 0 0 429.3 410;" xml:space="preserve">
<path d="M231.6,12.1L272,128.3c2.5,7.1,9.1,11.9,16.6,12.1l123,2.5c17.1,0.3,24.1,22,10.5,32.3l-98,74.3c-6,4.5-8.5,12.4-6.4,19.6
	l35.6,117.7c4.9,16.3-13.5,29.7-27.5,20l-100.9-70.2c-6.2-4.3-14.4-4.3-20.6,0l-100.9,70.2c-14,9.7-32.5-3.7-27.5-20L111.5,269
	c2.2-7.2-0.4-15-6.4-19.6l-98-74.3c-13.6-10.3-6.6-32,10.5-32.3l123-2.5c7.5-0.2,14.2-5,16.6-12.1l40.4-116.2
	C203.2-4,226-4,231.6,12.1z"/>
</svg>
