<?xml version="1.0" encoding="utf-8"?>
<!-- Generator: Adobe Illustrator 26.0.1, SVG Export Plug-In . SVG Version: 6.00 Build 0)  -->
<svg version="1.1" id="Слой_1" xmlns="http://www.w3.org/2000/svg" xmlns:xlink="http://www.w3.org/1999/xlink" x="0px" y="0px"
	 viewBox="0 0 373.64 320.1" style="enable-background:new 0 0 373.64 320.1;" xml:space="preserve">
<path d="M10.35,139.31C53.5,96.2,96.62,53.06,139.76,9.94c1.45-1.45,3.01-2.81,4.62-4.1c13.82-11.04,35.73-4.4,41.11,12.45
	c3.64,11.39,0.33,20.89-7.91,29.12c-27.46,27.41-54.88,54.87-82.31,82.32c-0.97,0.97-1.88,1.98-3.4,3.6c2.39,0,3.83,0,5.26,0
	c38.56,0,77.12,0,115.68,0c43.65,0,87.31,0.01,130.96-0.01c0.81,0,1.61,0.02,2.4,0.06c0.16,0,0.33-0.01,0.49-0.01
	c14.71,0,26.63,11.92,26.63,26.63c0,14.71-11.92,26.63-26.63,26.63c-0.36,0-0.72-0.01-1.08-0.03c-0.71,0.03-1.43,0.05-2.16,0.05
	c-82.09-0.06-250.07-0.04-251.56-0.04l85.93,86.18c9.27,9.29,11.71,21.2,6.58,31.52c-8.57,17.27-29.73,20.52-43.83,6.47
	C96.85,267.21,53.2,223.57,9.69,179.79c-3.14-3.16-5.83-7.29-7.32-11.47C-1.67,157.03,2.13,147.51,10.35,139.31z"/>
</svg>
