<?xml version="1.0" encoding="utf-8"?>
<!-- Generator: Adobe Illustrator 25.3.1, SVG Export Plug-In . SVG Version: 6.00 Build 0)  -->
<svg version="1.1" id="pngwing.com_xA0_Изображение_1_"
	 xmlns="http://www.w3.org/2000/svg" xmlns:xlink="http://www.w3.org/1999/xlink" x="0px" y="0px" viewBox="0 0 1334.2 1336.8"
	 style="enable-background:new 0 0 1334.2 1336.8;" xml:space="preserve">
<path d="M1061.8,537.3c0,10.1-4.9,17.5-11.6,24.2c-25.4,25.3-50.7,50.7-76,76c-159.9,159.9-319.7,319.8-479.6,479.8
	c-5.9,5.9-12,11.5-20.9,12.8c-8.5,1.2-16.2-0.4-23-5.8c-2.2-1.8-4.3-3.7-6.3-5.7c-75.8-75.8-151.6-151.5-227.2-227.4
	c-4.3-4.4-8.4-9.7-10.5-15.4c-4.8-12.7,0.2-23.3,9.4-32.5c21.4-21.3,42.7-42.7,64-64c164.5-164.5,328.9-329,493.5-493.4
	c4.4-4.4,9.7-8.4,15.4-10.6c12.9-5,23.6,0,32.9,9.3c24.9,25,49.9,50,74.9,75c50.8,50.8,101.5,101.6,152.4,152.3
	C1056.3,519.1,1062,526.8,1061.8,537.3z"/>
<path d="M1065.2,6.9c9.3-0.4,16.5,3.9,22.9,10.3c14.1,14.2,28.3,28.3,42.4,42.4c62,62,123.9,124,186,185.9
	c8.8,8.8,14.1,18.4,11.6,31.2c-1.4,7.1-5.7,12.3-10.5,17.2c-10.9,11-21.9,21.9-32.9,32.9c-46.1,46.1-92.2,92.2-138.2,138.3
	c-6,6-12.5,11.2-21.2,12.3c-11,1.4-19.7-3.2-27.2-10.8c-28.3-28.5-56.8-56.8-85.2-85.2c-47.7-47.7-95.4-95.5-143.2-143.2
	c-6.3-6.3-11.4-13-12-22.3c-0.7-10.8,4.3-18.8,11.5-26c47.9-47.8,95.7-95.7,143.5-143.5c9.8-9.8,19.6-19.6,29.3-29.3
	C1048.5,10.6,1055.8,6.4,1065.2,6.9z"/>
<path d="M6.5,1313.4c1.7-5.2,3.9-12.7,6.4-20.1c7.8-23.7,15.7-47.3,23.6-71c7.7-23,15.5-46,23.1-69.1c7.7-23,15.2-46.1,22.8-69.2
	c7.6-23,15.4-46.1,23.1-69.1c7.6-23.1,15.2-46.1,22.8-69.2c1-3.2,1.9-6.4,3-9.5c3.7-11.4,16.5-14.7,25.2-6.3
	c13.5,13.2,26.6,26.6,39.9,40c68.2,68.3,136.4,136.6,204.6,204.8c5.6,5.6,8.7,11.6,6,19.7c-1.8,5.6-5.5,8.8-11,10.6
	c-20.5,6.8-41,13.7-61.5,20.5c-20,6.7-40.1,13.3-60.1,20c-20.3,6.8-40.7,13.6-61,20.4c-17.5,5.8-35,11.6-52.6,17.4
	c-20.5,6.8-41,13.6-61.5,20.4c-17.7,5.9-35.4,11.7-53.1,17.5c-7.1,2.4-14.2,4.7-21.2,7.2C14.4,1332.3,6.5,1326.9,6.5,1313.4z"/>
</svg>
