<?xml version="1.0" encoding="UTF-8"?>
<svg height="11px" xmlns="http://www.w3.org/2000/svg" viewBox="0 0 11 11">
    <path d="m8.78,4.41c0,.08-.04.15-.1.2-.21.21-.42.42-.63.63-1.33,1.33-2.66,2.66-3.99,3.99-.05.05-.1.1-.17.11-.07,0-.13,0-.19-.05-.02-.01-.04-.03-.05-.05-.63-.63-1.26-1.26-1.89-1.89-.04-.04-.07-.08-.09-.13-.04-.11,0-.19.08-.27.18-.18.36-.36.53-.53,1.37-1.37,2.74-2.74,4.11-4.1.04-.04.08-.07.13-.09.11-.04.2,0,.27.08.21.21.42.42.62.62.42.42.84.84,1.27,1.27.06.06.11.12.1.21Z"/>
    <path d="m8.81,0c.08,0,.14.03.19.09.12.12.24.24.35.35.52.52,1.03,1.03,1.55,1.55.07.07.12.15.1.26-.01.06-.05.1-.09.14-.09.09-.18.18-.27.27-.38.38-.77.77-1.15,1.15-.05.05-.1.09-.18.1-.09.01-.16-.03-.23-.09-.24-.24-.47-.47-.71-.71-.4-.4-.79-.79-1.19-1.19-.05-.05-.09-.11-.1-.19,0-.09.04-.16.1-.22.4-.4.8-.8,1.19-1.19.08-.08.16-.16.24-.24.05-.05.11-.09.19-.08Z"/>
    <path d="m0,10.86s.03-.11.05-.17c.06-.2.13-.39.2-.59.06-.19.13-.38.19-.57.06-.19.13-.38.19-.58.06-.19.13-.38.19-.57.06-.19.13-.38.19-.58,0-.03.02-.05.02-.08.03-.09.14-.12.21-.05.11.11.22.22.33.33.57.57,1.13,1.14,1.7,1.7.05.05.07.1.05.16-.01.05-.05.07-.09.09-.17.06-.34.11-.51.17-.17.06-.33.11-.5.17-.17.06-.34.11-.51.17-.15.05-.29.1-.44.14-.17.06-.34.11-.51.17-.15.05-.29.1-.44.15-.06.02-.12.04-.18.06-.09.03-.15-.01-.15-.12Z"/>
</svg>