<?xml version="1.0" encoding="UTF-8"?>
<svg width="18px" xmlns="http://www.w3.org/2000/svg" viewBox="0 0 18 15">
    <path d="m17.54,6.53c-2.09-2.03-4.17-4.05-6.25-6.08-.07-.07-.15-.13-.22-.19-.67-.52-1.73-.21-1.99.59-.18.54-.02.98.38,1.37,1.33,1.29,2.65,2.58,3.98,3.87.05.05.09.09.16.17h-5.84c-2.11,0-4.22,0-6.33,0-.04,0-.08,0-.12,0,0,0-.02,0-.02,0-.71,0-1.29.56-1.29,1.25s.58,1.25,1.29,1.25c.02,0,.03,0,.05,0,.03,0,.07,0,.1,0,3.97,0,12.08,0,12.15,0l-4.15,4.05c-.45.44-.57,1-.32,1.48.41.81,1.44.96,2.12.3,2.11-2.05,4.22-4.1,6.32-6.16.15-.15.28-.34.35-.54.19-.53.01-.98-.39-1.36Z"/>
</svg>
