<?xml version="1.0" encoding="utf-8"?>
<!-- Generator: Adobe Illustrator 26.0.1, SVG Export Plug-In . SVG Version: 6.00 Build 0)  -->
<svg version="1.1" id="Слой_1" xmlns="http://www.w3.org/2000/svg" xmlns:xlink="http://www.w3.org/1999/xlink" x="0px" y="0px"
	 viewBox="0 0 373.64 320.1" style="enable-background:new 0 0 373.64 320.1;" xml:space="preserve">
<path d="M363.7,139.31C320.54,96.2,277.43,53.06,234.29,9.94c-1.45-1.45-3.01-2.81-4.62-4.1c-13.82-11.04-35.73-4.4-41.11,12.45
	c-3.64,11.39-0.33,20.89,7.91,29.12c27.46,27.41,54.88,54.87,82.31,82.32c0.97,0.97,1.88,1.98,3.4,3.6c-2.39,0-3.83,0-5.26,0
	c-38.56,0-77.12,0-115.68,0c-43.65,0-87.31,0.01-130.96-0.01c-0.81,0-1.61,0.02-2.4,0.06c-0.16,0-0.33-0.01-0.49-0.01
	c-14.71,0-26.63,11.92-26.63,26.63c0,14.71,11.92,26.63,26.63,26.63c0.36,0,0.72-0.01,1.08-0.03c0.71,0.03,1.43,0.05,2.16,0.05
	c82.09-0.06,250.07-0.04,251.56-0.04l-85.93,86.18c-9.27,9.29-11.71,21.2-6.58,31.52c8.57,17.27,29.73,20.52,43.83,6.47
	c43.71-43.58,87.36-87.22,130.87-130.99c3.14-3.16,5.83-7.29,7.32-11.47C375.72,157.03,371.92,147.51,363.7,139.31z"/>
</svg>
