<?xml version="1.0" encoding="UTF-8"?>
<svg height="11px" id="a" xmlns="http://www.w3.org/2000/svg" viewBox="0 0 7.5 11">
	<path d="m0,5.78h1.1V.23c.39-.09.81-.16,1.26-.19.45-.03.89-.05,1.34-.05.48,0,.94.05,1.4.14.46.09.87.26,1.22.51.36.25.64.59.86,1.01s.32.97.32,1.63-.11,1.2-.33,1.63-.51.79-.88,1.06-.78.46-1.25.57-.95.18-1.43.19l-1.22.02v1.1h2.57v.96h-2.57v2.18h-1.28v-2.18H0v-.96h1.1v-1.12H0v-.96ZM3.73,1.09c-.27,0-.52,0-.76.02-.24.02-.44.04-.58.07v4.51h1.17c.31,0,.62-.03.93-.09s.59-.18.84-.36c.25-.18.45-.42.6-.72.15-.31.23-.71.22-1.2.01-.42-.05-.78-.18-1.07-.13-.28-.3-.51-.53-.68-.22-.17-.48-.29-.77-.36-.29-.08-.61-.11-.94-.11Z"/>
</svg>